<?xml version="1.0" encoding="iso-8859-1"?>
<!-- Generator: Adobe Illustrator 19.0.0, SVG Export Plug-In . SVG Version: 6.00 Build 0)  -->
<svg version="1.1" id="Layer_1" xmlns="http://www.w3.org/2000/svg" xmlns:xlink="http://www.w3.org/1999/xlink" x="0px" y="0px"
	 viewBox="0 0 512.008 512.008" style="enable-background:new 0 0 512.008 512.008;" xml:space="preserve">
<g>
	<g>
		<path d="M504.507,79.905L432.102,7.499c-9.993-9.992-26.206-10.001-36.207,0L51.959,351.435c-2.807,2.807-4.924,6.238-6.187,10.01
			L1.313,478.309c-3.063,9.199-0.674,19.336,6.187,26.197c6.861,6.861,16.998,9.25,26.197,6.187l116.864-44.459
			c3.772-1.254,7.194-3.371,10.01-6.187l343.936-343.936C514.508,106.11,514.508,89.906,504.507,79.905z M25.608,486.398
			l44.459-116.864l72.405,72.405L25.608,486.398z M160.571,423.841l-72.405-72.405L359.696,79.905l72.405,72.405L160.571,423.841z
			 M450.201,134.211l-72.405-72.405l36.207-36.207l72.405,72.405L450.201,134.211z"/>
	</g>
</g>
<g>
</g>
<g>
</g>
<g>
</g>
<g>
</g>
<g>
</g>
<g>
</g>
<g>
</g>
<g>
</g>
<g>
</g>
<g>
</g>
<g>
</g>
<g>
</g>
<g>
</g>
<g>
</g>
<g>
</g>
</svg>
